PathFileType	4	(X/Y/Z)	pose2sim_0-881.trc
DataRate	CameraRate	NumFrames	NumMarkers	Units	OrigDataRate	OrigDataStartFrame	OrigNumFrames
50	50	7	22	m	50	330	882
Frame#	Time	Hip			RHip			RKnee			RAnkle			RBigToe			RSmallToe			RHeel			LHip			LKnee			LAnkle			LBigToe			LSmallToe			LHeel			Neck			Head			Nose			RShoulder			RElbow			RWrist			LShoulder			LElbow			LWrist			
		X1	Y1	Z1	X2	Y2	Z2	X3	Y3	Z3	X4	Y4	Z4	X5	Y5	Z5	X6	Y6	Z6	X7	Y7	Z7	X8	Y8	Z8	X9	Y9	Z9	X10	Y10	Z10	X11	Y11	Z11	X12	Y12	Z12	X13	Y13	Z13	X14	Y14	Z14	X15	Y15	Z15	X16	Y16	Z16	X17	Y17	Z17	X18	Y18	Z18	X19	Y19	Z19	X20	Y20	Z20	X21	Y21	Z21	X22	Y22	Z22	
330	6.6	0.13488463569313297	0.9742938515889081	-0.05888892912398835	0.03494126971643844	0.9631457357251348	-0.05337906853253695	0.013818789586187175	0.5186217948210803	-0.07100330799428001	0.0027161450231289476	0.09418089234543252	-0.08468362327707367	0.015245861897293883	0.03715220930072199	0.0813097808937026	-0.03668476862368981	0.0384899168444439	0.04186323893843618	0.011909962702986904	0.04927642643648988	-0.12121974446798923	0.24227096785987728	0.9568041854735673	-0.07797154285972924	0.24455048150746736	0.520047439898519	-0.11014356796388045	0.24486826529335934	0.09456515473092446	-0.10832583554611408	0.27656942628422354	0.03989522427849025	0.08381672052816519	0.31762807654803765	0.040573497792396995	0.025716235545916715	0.23348462989892566	0.05054891381370955	-0.1486086209878295	0.15203919093001395	1.5772602933244428	-0.10702285822589973	0.15368534646852072	1.8209369231965422	-0.05283041121893334	0.15433527736436214	1.6903714324280361	0.061071392752754035	-0.003254022143739458	1.4854544992143686	-0.10224710257086035	-0.07607578937664544	1.2686675640650658	0.08249599704100723	-0.11506087517460421	1.4852182703853862	0.18249927437905067	0.3075844513142558	1.4835977527137163	-0.1276188768152849	0.38447508953423737	1.2721180649081625	0.030392075369344764	0.40376955728103464	1.4469619518334054	0.18171973671349526
331	6.62	0.13538373372647033	0.9753274121226261	-0.06389519373015458	0.03512225607316137	0.9644069618631391	-0.05874962559637009	0.012588333440503162	0.520775961361239	-0.07425591527525746	0.003282319426143557	0.0945850432470525	-0.08315004237453795	0.015678020319977136	0.03779708948421135	0.0792956263747988	-0.03451134088808682	0.03910236935782676	0.04156552882443097	0.012421753358417505	0.049713898041283365	-0.11963867643118692	0.24153460617534867	0.9580856524865197	-0.07772071614003334	0.24180541439955255	0.5226874843776057	-0.11343493231620468	0.24356536456065167	0.0922159540986484	-0.10715108023396656	0.27884589011650596	0.037533613088725236	0.07714143842488165	0.32117517750787505	0.04132808933095619	0.02188850760533402	0.23219633667302295	0.049244725114984886	-0.1458689698469275	0.14945827311441315	1.57650116962592	-0.10587685159596141	0.15249209504134723	1.81888211836544	-0.05500931546310194	0.1559286999932192	1.689443342122809	0.06102824652860922	-0.007338034885006816	1.484773174488794	-0.09918900995047669	-0.07773329012887728	1.2686324137343674	0.08282803857490094	-0.12059633743073864	1.480610898365449	0.19258957429661355	0.3091198279350961	1.483150487178475	-0.1340594974251011	0.38820544603890356	1.2652267200438805	0.02387725382722321	0.4138617883576794	1.4441780396006494	0.17923364042582332
332	6.64	0.1351987455057998	0.9817103211850776	-0.05858940857770154	0.03372979441950296	0.9690125384354918	-0.0520975851117355	0.015190316127603812	0.5170800411103231	-0.07826204969510056	0.0032007997311131672	0.08790853539882096	-0.08611482978837222	0.0009479429669515075	0.03343610903736856	0.10467977154490124	-0.04428675750845974	0.03442998526000522	0.058959626231952306	0.009505363612547637	0.039880139834249956	-0.12508508419094438	0.2396562627407239	0.9632114572244785	-0.06765969214316653	0.24296778154997611	0.5194891249211936	-0.1112719308883861	0.2457300677922929	0.09008122221107243	-0.11125892303246648	0.2820381808298794	0.03358697117276965	0.09803889299465127	0.32036685233741446	0.03178075706149084	0.028751741252820182	0.22734275066401008	0.042929993015853596	-0.1492899956025695	0.14919981843385835	1.5759072569795722	-0.10784042021682065	0.15099771557447364	1.819890159655611	-0.07194420684211471	0.15026410311862567	1.6952761334773396	0.05943833255390282	-0.009647476716642962	1.4795369230924857	-0.09529330168933635	-0.0836264754674943	1.2539349627768472	0.07851262507369214	-0.11258244659500297	1.4624607398497578	0.24084469261176816	0.3079357161439154	1.4782833508127609	-0.11762891744889874	0.3879071182188821	1.249741628008887	0.03664400651059513	0.4303752568580744	1.4479522066632189	0.18854505982952355
333	6.66	0.13677580239544088	0.9759358418037425	-0.06686488947714052	0.0326407452162955	0.9632423441698569	-0.06266586665446737	0.010677346919607313	0.5205683749702861	-0.07086019960536635	0.0018920199825236913	0.09528574381548496	-0.07956590789217627	0.010733673267029523	0.03711306805808682	0.07364063793754375	-0.03837608602596889	0.04152004949223174	0.03752739395604894	0.011958743556429324	0.05327447158992326	-0.12164483128477424	0.24187901544116877	0.9582394961643023	-0.07887077539196254	0.24565366813194203	0.5199855895164267	-0.11511263054022641	0.24575945418371165	0.09484806949813045	-0.11053559287686603	0.28014476128755816	0.03520460132792269	0.07615050477605854	0.3245384255570351	0.03963769327606348	0.01503727605190051	0.22698367926069224	0.05086306863015681	-0.1479888836830711	0.14756631423722175	1.5768766107583354	-0.11448077103601359	0.14770243072327643	1.819126929467951	-0.06213314358407739	0.1562377209972612	1.69149461682284	0.07681129366621257	-0.008477506999984591	1.4817913550764996	-0.109999674033115	-0.08322567010648586	1.264191797646711	0.0856762937150469	-0.126652019508323	1.4621579507924631	0.25326116968680484	0.3066142523326032	1.4791367254962455	-0.14103215976791766	0.39579250827214685	1.2589875330869842	0.020357717099350987	0.43477645166843865	1.444850322780793	0.17888021419838954
334	6.68	0.13524313686064812	0.9747047578735465	-0.060669521094769495	0.03306624354654267	0.9619749885978031	-0.0584066708863725	0.011020134688982629	0.519792207188919	-0.07395445312959766	0.004066855295578623	0.09391466252367645	-0.0811741901969875	0.011550070365122293	0.034312847218486715	0.0704883546725079	-0.04020745995012882	0.037377918883108686	0.033817999876464645	0.01066645388812107	0.05034404983471828	-0.1142601580297673	0.24415541489036086	0.9582587609755697	-0.07743151838372136	0.24351113296668705	0.5222787303253585	-0.1168322206465289	0.2443781731700521	0.09330693218619811	-0.10840556372084505	0.2723940933568849	0.038513010693038405	0.0793642349838354	0.31778173988946196	0.03968706899737784	0.015674863562703454	0.23009619427994835	0.046307573623403465	-0.14499225160055612	0.14761469521688528	1.579108535697092	-0.11939387050639949	0.1490693628328981	1.8214096606649794	-0.0713059919922611	0.15238462317183044	1.6930700680756348	0.06831456807814996	-0.00909769805546087	1.484289918346027	-0.11004845778676116	-0.0836959407262396	1.2607039478173336	0.07611925836535577	-0.12923303255932678	1.4435082869637519	0.2633273517953749	0.3090304292105716	1.4789016701851312	-0.14069342490814218	0.3963936893620196	1.2528593500904126	0.02270395314512916	0.4380522709477693	1.4260662123866588	0.19470210413886377
335	6.7	0.13352348822458845	0.9768901957655007	-0.06415002583274623	0.03289810590280012	0.9636977057562498	-0.05805863977016619	0.012298513256487714	0.5225080123015224	-0.07404584409113854	0.00382866011447157	0.09453882665733272	-0.08313217450146063	0.009966969481893056	0.03556704802888629	0.07236455057323268	-0.03750486706742734	0.03651945320731332	0.03758794001162331	0.010331261971423695	0.04944533201577717	-0.11451760544977112	0.24279650310259093	0.9615672554963606	-0.08009971579771134	0.24543445170999084	0.525052373663533	-0.11398579287060087	0.24692591492475566	0.09267560975527891	-0.10770853777954313	0.2771637942194391	0.034408778149403844	0.07184398096613054	0.32518272249757724	0.03901705735522786	0.013392438619258484	0.22948330976608836	0.04898200080711468	-0.14729096837298103	0.14882112718848273	1.5780866885812834	-0.11632323478302338	0.14883196193931617	1.8223081089565056	-0.07164641871757642	0.15537236564669318	1.6935785190978503	0.07416995867477504	-0.008153161917221305	1.48169108618375	-0.10799763473444747	-0.08456948988390596	1.2572791935178198	0.07424892129503635	-0.129747373535346	1.4233251463844534	0.27054653629560355	0.30724421650612554	1.4778225025894176	-0.1433062698002611	0.3979944769483639	1.2532953913697724	0.02118610338611854	0.4457121899797478	1.4199776271217697	0.2060867759281317
336	6.72	0.13422947837206226	0.9795251386303403	-0.06160565551091311	0.032429632707119196	0.9652880884724595	-0.05567796087183482	0.01442503732691156	0.5174007456984753	-0.08076500930382248	0.003613294282179383	0.0882097447540006	-0.0896069365238654	-0.006205725590021147	0.03480425362847589	0.10098241796244742	-0.05269419424179623	0.03493911452899151	0.049289178272339126	0.011062312015728465	0.04114875486151275	-0.1252539086024026	0.23998477032072263	0.9618797355021615	-0.06663861954373913	0.2420658533575685	0.5185253606089645	-0.10959960530383589	0.24651751881850184	0.08371838437335502	-0.11006350628278351	0.28367933978487575	0.031815102773816516	0.08665283584270714	0.3224389624890126	0.028124914010393298	0.022093468468427115	0.2272859560558983	0.03901620871645589	-0.14611918282112535	0.14815900226650613	1.5766337934129702	-0.11820077915294994	0.15073779984642602	1.8175236322242727	-0.08316252426351162	0.14813789810951886	1.6956614210061514	0.04383778917377819	-0.011726471970581406	1.478038435647488	-0.11653840171987752	-0.08666593615347701	1.2462517506433115	0.0663151914840572	-0.14301942399894366	1.4032824612109638	0.27037751919206293	0.30792254231517524	1.4722960038944464	-0.12402930601092113	0.4015211635199587	1.2404515358228472	0.0188757725282045	0.45677392303605874	1.398777943694148	0.21113811243058134
